<?xml version="1.0" encoding="iso-8859-1"?>
<!-- Generator: Adobe Illustrator 19.0.0, SVG Export Plug-In . SVG Version: 6.00 Build 0)  -->
<svg version="1.1" id="Capa_1" xmlns="http://www.w3.org/2000/svg" xmlns:xlink="http://www.w3.org/1999/xlink" x="0px" y="0px"
	 viewBox="0 0 512 512" style="enable-background:new 0 0 512 512;" xml:space="preserve">
<path style="fill:#BB1A34;" d="M312.889,0L256,114.176l-71.111-71.367v99.911L42.667,114.176l113.778,114.176L0,313.97h170.667
	L85.348,485.234L256,371.058L410.496,512h1.564l-42.268-198.03H512l-113.778-85.618L512,99.911L341.348,142.72L312.889,0z"/>
<path style="fill:#FCAB40;" d="M325.894,183.751l26.453-6.642l74.325-18.645l-48.085,54.272l-18.759,21.191l22.599,16.996
	l41.6,31.317h-51.996h-32.156l6.727,31.559l22.059,103.239l-83.129-75.833l-15.033-13.71l-16.882,11.307l-74.524,49.863L213.296,320
	l18.816-37.76h-42.069h-54.03l53.476-29.284l30.507-16.668l-24.562-24.661l-43.292-43.435l45.81,9.188l31.09,6.244v-31.829v-28.316
	l20.622,20.693l25.515,25.6l16.114-32.384l18.105-36.352"/>
<path style="fill:#F5F8FA;" d="M305.948,203.389l10.923-2.731l30.677-7.694l-19.854,22.4l-7.751,8.747l9.344,7.012l17.18,12.928
	h-21.476h-13.284l2.788,13.028l9.102,42.624l-34.318-31.303l-6.201-5.66l-6.983,4.665l-30.763,20.594l14.123-28.345l7.765-15.602
	H249.87h-22.315l22.087-12.075l12.587-6.898l-10.14-10.183l-17.863-17.934l18.887,3.797l12.843,2.588v-13.141v-11.691l8.519,8.533
	l10.524,10.567l6.656-13.355l7.467-15.004"/>
<g>
</g>
<g>
</g>
<g>
</g>
<g>
</g>
<g>
</g>
<g>
</g>
<g>
</g>
<g>
</g>
<g>
</g>
<g>
</g>
<g>
</g>
<g>
</g>
<g>
</g>
<g>
</g>
<g>
</g>
</svg>
